<mxfile host="app.diagrams.net" modified="2023-05-28T03:21:35.004Z" agent="Mozilla/5.0 (Macintosh; Intel Mac OS X 10_15_7) AppleWebKit/537.36 (KHTML, like Gecko) Chrome/113.0.0.0 Safari/537.36" etag="vtWScFB5WKe_SiYwQIgQ" version="21.3.4" type="github">
  <diagram name="Page-1" id="03018318-947c-dd8e-b7a3-06fadd420f32">
    <mxGraphModel dx="1026" dy="660" grid="1" gridSize="10" guides="1" tooltips="1" connect="1" arrows="1" fold="1" page="1" pageScale="1" pageWidth="1100" pageHeight="850" background="#ffffff" math="0" shadow="0">
      <root>
        <mxCell id="0" />
        <mxCell id="1" parent="0" />
        <mxCell id="g4qoev4n9iwd7cTQDGb7-4" value="行业短信B端 发送逻辑初稿" style="swimlane;whiteSpace=wrap;html=1;" vertex="1" parent="1">
          <mxGeometry x="90" y="130" width="380" height="460" as="geometry" />
        </mxCell>
        <mxCell id="g4qoev4n9iwd7cTQDGb7-6" value="&lt;font style=&quot;font-size: 16px;&quot;&gt;短信签名&lt;/font&gt;" style="text;html=1;strokeColor=none;fillColor=none;align=center;verticalAlign=middle;whiteSpace=wrap;rounded=0;" vertex="1" parent="g4qoev4n9iwd7cTQDGb7-4">
          <mxGeometry y="30" width="120" height="50" as="geometry" />
        </mxCell>
        <mxCell id="g4qoev4n9iwd7cTQDGb7-7" value="美团" style="rounded=0;whiteSpace=wrap;html=1;" vertex="1" parent="g4qoev4n9iwd7cTQDGb7-4">
          <mxGeometry x="130" y="35" width="120" height="40" as="geometry" />
        </mxCell>
        <mxCell id="g4qoev4n9iwd7cTQDGb7-9" value="&lt;font style=&quot;font-size: 16px;&quot;&gt;短信模板&lt;/font&gt;" style="text;html=1;strokeColor=none;fillColor=none;align=center;verticalAlign=middle;whiteSpace=wrap;rounded=0;" vertex="1" parent="g4qoev4n9iwd7cTQDGb7-4">
          <mxGeometry y="90" width="120" height="50" as="geometry" />
        </mxCell>
        <mxCell id="g4qoev4n9iwd7cTQDGb7-10" value="您的代金券已到期。将于7个工作日之内退回到原账户" style="rounded=0;whiteSpace=wrap;html=1;" vertex="1" parent="g4qoev4n9iwd7cTQDGb7-4">
          <mxGeometry x="130" y="95" width="190" height="125" as="geometry" />
        </mxCell>
        <mxCell id="g4qoev4n9iwd7cTQDGb7-11" value="&lt;span style=&quot;font-size: 16px;&quot;&gt;触达用户&lt;/span&gt;" style="text;html=1;strokeColor=none;fillColor=none;align=center;verticalAlign=middle;whiteSpace=wrap;rounded=0;" vertex="1" parent="g4qoev4n9iwd7cTQDGb7-4">
          <mxGeometry x="10" y="220" width="120" height="50" as="geometry" />
        </mxCell>
        <mxCell id="g4qoev4n9iwd7cTQDGb7-12" value="&lt;span style=&quot;color: rgb(0, 0, 0); font-family: Helvetica; font-size: 12px; font-style: normal; font-variant-ligatures: normal; font-variant-caps: normal; font-weight: 400; letter-spacing: normal; orphans: 2; text-align: center; text-indent: 0px; text-transform: none; widows: 2; word-spacing: 0px; -webkit-text-stroke-width: 0px; background-color: rgb(251, 251, 251); text-decoration-thickness: initial; text-decoration-style: initial; text-decoration-color: initial; float: none; display: inline !important;&quot;&gt;18829290192&lt;br&gt;18829290192&lt;br&gt;18829290192&lt;br&gt;18829290192&lt;br&gt;18829290192&lt;br&gt;&lt;/span&gt;" style="rounded=0;whiteSpace=wrap;html=1;" vertex="1" parent="g4qoev4n9iwd7cTQDGb7-4">
          <mxGeometry x="130" y="230" width="190" height="125" as="geometry" />
        </mxCell>
        <mxCell id="g4qoev4n9iwd7cTQDGb7-13" value="发送" style="rounded=1;whiteSpace=wrap;html=1;" vertex="1" parent="g4qoev4n9iwd7cTQDGb7-4">
          <mxGeometry x="200" y="370" width="120" height="60" as="geometry" />
        </mxCell>
        <mxCell id="g4qoev4n9iwd7cTQDGb7-17" value="" style="rounded=0;whiteSpace=wrap;html=1;" vertex="1" parent="1">
          <mxGeometry x="600" y="130" width="220" height="460" as="geometry" />
        </mxCell>
        <mxCell id="g4qoev4n9iwd7cTQDGb7-18" value="【美团】：&lt;br&gt;您的代金券已到期。将于7个工作日之内退回到原账户" style="rounded=1;whiteSpace=wrap;html=1;" vertex="1" parent="1">
          <mxGeometry x="611" y="150" width="200" height="130" as="geometry" />
        </mxCell>
        <mxCell id="g4qoev4n9iwd7cTQDGb7-19" value="&lt;b&gt;&lt;font color=&quot;#ff0873&quot;&gt;触达效果展示&lt;/font&gt;&lt;/b&gt;" style="text;html=1;strokeColor=none;fillColor=none;align=center;verticalAlign=middle;whiteSpace=wrap;rounded=0;" vertex="1" parent="1">
          <mxGeometry x="700" y="345" width="100" height="25" as="geometry" />
        </mxCell>
      </root>
    </mxGraphModel>
  </diagram>
</mxfile>
